<?xml version="1.0" encoding="UTF-8" standalone="no"?>
<!-- Created with Inkscape (http://www.inkscape.org/) -->

<svg
   xmlns:dc="http://purl.org/dc/elements/1.1/"
   xmlns:cc="http://creativecommons.org/ns#"
   xmlns:rdf="http://www.w3.org/1999/02/22-rdf-syntax-ns#"
   xmlns:svg="http://www.w3.org/2000/svg"
   xmlns="http://www.w3.org/2000/svg"
   xmlns:sodipodi="http://sodipodi.sourceforge.net/DTD/sodipodi-0.dtd"
   xmlns:inkscape="http://www.inkscape.org/namespaces/inkscape"
   width="48pt"
   height="48pt"
   viewBox="0 0 16.933334 16.933333"
   version="1.1"
   id="svg979"
   inkscape:version="0.92.4 (5da689c313, 2019-01-14)"
   sodipodi:docname="19 - Blueray Disc.svg"
   inkscape:export-filename="E:\TR Design Studio Creative\Project Design\TR Creative Design\Icon Design\Project Hiring\Icon Icons\004 - Cinema\Send\01 - Line\8 - Camcorder.png"
   inkscape:export-xdpi="768"
   inkscape:export-ydpi="768">
  <defs
     id="defs973" />
  <sodipodi:namedview
     id="base"
     pagecolor="#ffffff"
     bordercolor="#666666"
     borderopacity="1.0"
     inkscape:pageopacity="0.0"
     inkscape:pageshadow="2"
     inkscape:zoom="8.078125"
     inkscape:cx="32"
     inkscape:cy="32"
     inkscape:document-units="pt"
     inkscape:current-layer="layer1"
     showgrid="false"
     units="pt"
     inkscape:window-width="1366"
     inkscape:window-height="716"
     inkscape:window-x="-8"
     inkscape:window-y="-8"
     inkscape:window-maximized="1"
     inkscape:snap-bbox="true"
     inkscape:bbox-nodes="true"
     inkscape:snap-nodes="false"
     showguides="false">
    <inkscape:grid
       type="xygrid"
       id="grid1526" />
    <sodipodi:guide
       position="0.97013909,15.963209"
       orientation="56.666615,0"
       id="guide1528"
       inkscape:locked="false" />
    <sodipodi:guide
       position="0.97013909,0.97016731"
       orientation="0,56.666667"
       id="guide1530"
       inkscape:locked="false" />
    <sodipodi:guide
       position="15.963195,0.97016731"
       orientation="-56.666615,0"
       id="guide1532"
       inkscape:locked="false" />
    <sodipodi:guide
       position="15.963195,15.963209"
       orientation="0,-56.666667"
       id="guide1534"
       inkscape:locked="false" />
  </sodipodi:namedview>
  <metadata
     id="metadata976">
    <rdf:RDF>
      <cc:Work
         rdf:about="">
        <dc:format>image/svg+xml</dc:format>
        <dc:type
           rdf:resource="http://purl.org/dc/dcmitype/StillImage" />
        <dc:title></dc:title>
      </cc:Work>
    </rdf:RDF>
  </metadata>
  <g
     inkscape:label="Layer 1"
     inkscape:groupmode="layer"
     id="layer1"
     transform="translate(0,-280.06668)">
    <path
       d="m 8.4634874,281.04032 c -4.1342496,0 -7.49334251,3.3591 -7.49334866,7.49334 -1.24e-6,4.13425 3.35909426,7.49272 7.49334866,7.49272 4.0860786,0 7.5003916,-3.289 7.4997076,-7.49336 -6.52e-4,-4.20435 -3.414489,-7.4927 -7.4997076,-7.4927 z m 0,0.65153 c 3.7821276,0 6.8411636,3.05968 6.8411706,6.84181 0,3.78214 -3.05904,6.84117 -6.8411706,6.84117 -3.7821357,0 -6.8418094,-3.05903 -6.841808,-6.84117 6.2e-6,-3.78213 3.0596771,-6.84181 6.841808,-6.84181 z m 2.7155996,1.5385 a 0.32580283,0.32580283 0 0 0 -0.03183,6.6e-4 0.32580283,0.32580283 0 0 0 -0.12344,0.614 c 0.775174,0.42416 1.432558,1.03608 1.913901,1.77328 a 0.32614424,0.32614424 0 1 0 0.54592,-0.35695 c -0.539986,-0.82704 -1.278092,-1.51105 -2.148049,-1.98707 a 0.32580283,0.32580283 0 0 0 -0.156519,-0.0439 z m -0.704989,1.22227 a 0.32580283,0.32580283 0 0 0 -0.03118,10e-4 0.32580283,0.32580283 0 0 0 -0.120884,0.61337 c 0.675968,0.36349 1.233866,0.91989 1.59958,1.59449 a 0.32580843,0.32580843 0 1 0 0.57328,-0.30923 c -0.426472,-0.78667 -1.075344,-1.43466 -1.863634,-1.85854 a 0.32580283,0.32580283 0 0 0 -0.15716,-0.0414 z m -4.0581283,0.0134 a 0.32580283,0.32580283 0 0 0 -0.1463424,0.0401 c -0.7722197,0.42154 -1.4085848,1.05924 -1.8305466,1.83118 a 0.32643808,0.32643808 0 1 0 0.5732794,0.3124 c 0.3618553,-0.66198 0.9074572,-1.20817 1.5696777,-1.56966 a 0.32580283,0.32580283 0 0 0 -0.1660681,-0.61395 z m 2.000433,1.16755 c -1.5502807,0 -2.8504853,1.30317 -2.850488,2.90012 -6.1e-6,1.59694 1.3006174,2.89758 2.8975727,2.89758 1.5056299,0 2.9453936,-1.19315 2.9427456,-2.89885 -0.0026,-1.70571 -1.4395524,-2.89885 -2.9898303,-2.89885 z m 0.047083,0.65091 c 1.2448289,0 2.2485753,1.00437 2.2485753,2.24921 6e-6,1.24483 -1.0037438,2.24603 -2.2485753,2.24603 -1.2448364,0 -2.2466732,-1.0012 -2.2466709,-2.24603 3.6e-6,-1.24484 1.0018406,-2.24921 2.2466709,-2.24921 z m 0,1.00404 c -0.6835187,0 -1.2451788,0.56166 -1.2451814,1.24517 -7.2e-6,0.68352 0.5616565,1.24455 1.2451814,1.24455 0.5923281,0 1.2224065,-0.47351 1.2216371,-1.26618 -6.516e-4,-0.79266 -0.6307596,-1.22354 -1.2216371,-1.22354 z m 0,0.65153 c 0.3313987,0 0.5936367,0.26225 0.5936367,0.59364 4e-6,0.3314 -0.2622341,0.59365 -0.5936367,0.59365 -0.3314066,0 -0.5936446,-0.26225 -0.593642,-0.59365 3.5e-6,-0.33139 0.2622417,-0.59364 0.593642,-0.59364 z m -3.7552648,2.27594 a 0.32580283,0.32580283 0 0 0 -0.2844116,0.48548 c 0.4167729,0.7751 1.0495885,1.41471 1.8184579,1.84135 a 0.32580283,0.32580283 0 1 0 0.3168641,-0.56819 c -0.659381,-0.3659 -1.2021121,-0.91774 -1.559499,-1.58239 a 0.32580283,0.32580283 0 0 0 -0.2914114,-0.17625 z m 7.4901671,0.0255 a 0.32580283,0.32580283 0 0 0 -0.281867,0.17371 c -0.361491,0.66132 -0.908361,1.20755 -1.569677,1.56904 a 0.32671749,0.32671749 0 1 0 0.312406,0.57391 c 0.771164,-0.42153 1.407103,-1.05747 1.82864,-1.82864 a 0.32580283,0.32580283 0 0 0 -0.289502,-0.48802 z m -8.4967455,1.03395 a 0.32580283,0.32580283 0 0 0 -0.2742316,0.50773 c 0.5356237,0.82851 1.2699456,1.51494 2.1359574,1.99471 a 0.32651549,0.32651549 0 0 0 0.3168615,-0.57074 c -0.7716805,-0.4275 -1.4269097,-1.03984 -1.9043543,-1.77836 a 0.32580283,0.32580283 0 0 0 -0.274233,-0.15334 z"
       style="color:#000000;font-style:normal;font-variant:normal;font-weight:normal;font-stretch:normal;font-size:medium;line-height:normal;font-family:sans-serif;font-variant-ligatures:normal;font-variant-position:normal;font-variant-caps:normal;font-variant-numeric:normal;font-variant-alternates:normal;font-feature-settings:normal;text-indent:0;text-align:start;text-decoration:none;text-decoration-line:none;text-decoration-style:solid;text-decoration-color:#000000;letter-spacing:normal;word-spacing:normal;text-transform:none;writing-mode:lr-tb;direction:ltr;text-orientation:mixed;dominant-baseline:auto;baseline-shift:baseline;text-anchor:start;white-space:normal;shape-padding:0;clip-rule:nonzero;display:inline;overflow:visible;visibility:visible;isolation:auto;mix-blend-mode:normal;color-interpolation:sRGB;color-interpolation-filters:linearRGB;solid-color:#000000;solid-opacity:1;vector-effect:none;fill:white;fill-opacity:1;fill-rule:nonzero;stroke:none;stroke-width:0.529167;stroke-linecap:round;stroke-linejoin:round;stroke-miterlimit:4;stroke-dasharray:none;stroke-dashoffset:0;stroke-opacity:1;color-rendering:auto;image-rendering:auto;shape-rendering:auto;text-rendering:auto;enable-background:accumulate"
       id="path988"
       inkscape:connector-curvature="0" />
  </g>
</svg>
