<?xml version="1.0" encoding="iso-8859-1"?>
<!-- Generator: Adobe Illustrator 16.0.0, SVG Export Plug-In . SVG Version: 6.00 Build 0)  -->
<!DOCTYPE svg PUBLIC "-//W3C//DTD SVG 1.1//EN" "http://www.w3.org/Graphics/SVG/1.1/DTD/svg11.dtd">
<svg version="1.1" id="Capa_1" xmlns="http://www.w3.org/2000/svg" xmlns:xlink="http://www.w3.org/1999/xlink" x="0px" y="0px"
	 width="619.585px" height="619.585px" viewBox="0 0 619.585 619.585" style="enable-background:new 0 0 619.585 619.585;"
	 xml:space="preserve">
<g>
	<path style="fill:#27241F;" d="M610.009,480.991c0.36,0.189,1.574,0.815,2.939,1.726h-0.189L610.009,480.991L610.009,480.991z"/>
	<path style="fill:#27241F;" d="M613.12,482.888l-0.36-0.171h0.189C612.949,482.812,613.025,482.812,613.12,482.888L613.12,482.888z
		"/>
	<path style="fill:#27241F;" d="M544.818,390.007c12.8-32.127,20.29-66.945,20.29-103.628
		c0-156.053-126.516-282.549-282.559-282.549C126.496,3.83,0,130.326,0,286.379c0,156.044,126.496,282.559,282.549,282.559
		c27.476,0,53.895-4.247,79-11.586c5.897-2.256,8.173-5.859,8.855-8.988v-8.931c0-15.397-21.143-10.619-21.143-10.619v-0.019
		c-21.252,5.936-43.579,9.216-66.713,9.216c-138.958,0-251.626-112.658-251.626-251.632c0-138.978,112.668-251.636,251.626-251.636
		S534.18,147.401,534.18,286.379c0,27.671-4.722,54.165-13.046,79.053c0.038-0.014,0.189-0.057,0.189-0.057
		s-6.997,20.289,1.214,25.485l6.447,4.039C529.098,394.956,539.129,399.052,544.818,390.007L544.818,390.007z"/>
	<path style="fill:#27241F;" d="M252.399,70.752c0,0,77.882-11.766,144.079,33.099c27.021,18.445,66.178,49.96,89.406,115.17
		c2.863,12.416-5.727,15.938-8.268,17.189c-2.579,1.275-16.27,4.47-20.707-7.646c-4.456-12.074-51.842-135.839-183.254-128.862
		c-20.688,2.233-28.955,4.779-35.317-5.726C235.485,83.48,236.263,74.26,252.399,70.752L252.399,70.752z"/>
	<g>
		<defs>
			<rect id="SVGID_1_" y="3.83" width="619.585" height="611.925"/>
		</defs>
		<clipPath id="SVGID_2_">
			<use xlink:href="#SVGID_1_"  style="overflow:visible;"/>
		</clipPath>
		<path style="clip-path:url(#SVGID_2_);fill:#27241F;" d="M66.941,333.311c0,0,15.838,77.175,80.797,123.808
			c26.646,18.981,69.747,44.884,138.973,44.144c12.628-1.593,12.941-10.865,13.273-13.69c0.303-2.825-1.432-16.801-14.316-16.801
			s-145.406-1.744-184.212-127.481c-5.058-20.194-5.522-28.832-17.573-31.188C73.051,313.04,64.661,316.975,66.941,333.311
			L66.941,333.311z"/>
		<path style="clip-path:url(#SVGID_2_);fill:#27241F;" d="M614.674,484.102l-1.555-1.214c-0.095-0.076-0.189-0.076-0.189-0.171
			h-0.19l-2.749-1.744h-0.095l-0.076-0.095L418.834,366.114l-2.428-1.46c-5.195-2.825-16.914-7.3-16.914,9.832v229.872
			c0,0,0.379,18.128,16.857,8.685c0.019,0,0.019-0.019,0.019-0.019l196.296-112.407v-0.076c0.189-0.113,0.36-0.284,0.645-0.379
			c0.626-0.474,1.555-1.023,2.56-1.839C622.752,492.71,618.732,487.4,614.674,484.102L614.674,484.102z"/>
	</g>
	<path style="fill:#27241F;" d="M278.377,331.452c-24.897,0-45.092-20.2-45.092-45.111c0-24.888,20.194-45.068,45.092-45.068
		c24.888,0,45.082,20.181,45.082,45.068C323.459,311.252,303.265,331.452,278.377,331.452L278.377,331.452z M278.377,172.228
		c-63.049,0-114.147,51.093-114.147,114.151c0,63.016,51.098,114.151,114.147,114.151c63.016,0,114.118-51.136,114.118-114.151
		C392.515,223.321,341.393,172.228,278.377,172.228L278.377,172.228z"/>
</g>
<g>
</g>
<g>
</g>
<g>
</g>
<g>
</g>
<g>
</g>
<g>
</g>
<g>
</g>
<g>
</g>
<g>
</g>
<g>
</g>
<g>
</g>
<g>
</g>
<g>
</g>
<g>
</g>
<g>
</g>
</svg>
