<?xml version="1.0" encoding="iso-8859-1"?>
<!-- Generator: Adobe Illustrator 16.0.0, SVG Export Plug-In . SVG Version: 6.00 Build 0)  -->
<!DOCTYPE svg PUBLIC "-//W3C//DTD SVG 1.1//EN" "http://www.w3.org/Graphics/SVG/1.1/DTD/svg11.dtd">
<svg version="1.1" id="Capa_1" xmlns="http://www.w3.org/2000/svg" xmlns:xlink="http://www.w3.org/1999/xlink" x="0px" y="0px"
	 width="612px" height="612px" viewBox="0 0 612 612" style="enable-background:new 0 0 612 612;" xml:space="preserve">
<g>
	<g>
		<g>
			<g>
				<path d="M492.752,391.374c-11.323,0-19.751-0.35-31.354-0.817l-5.812-0.233c-6.443-0.257-11.463-5.696-11.183-12.14
					c0.257-6.443,5.743-11.672,12.14-11.182l5.836,0.233c11.253,0.467,19.447,0.793,30.419,0.793
					c50.053,0,90.791-40.737,90.791-90.79c0-50.076-40.738-90.813-90.791-90.813c-13.166,0-25.983,2.872-38.123,8.498
					c-3.104,1.448-6.677,1.424-9.758,0.023c-3.105-1.424-5.416-4.109-6.373-7.4C421.338,127.711,365.799,85.899,303.49,85.899
					c-49.726,0-94.362,43.516-119.575,84.23c-2.965,4.809-8.871,6.84-14.077,4.832c-12.42-4.669-25.26-7.05-38.146-7.05
					c-49.982,0-108.346,23.789-108.346,90.79c0,57.29,44.753,104.798,101.856,108.159c6.443,0.374,11.346,5.906,10.972,12.326
					s-6.117,11.323-12.326,10.973C54.395,386.075,0,328.318,0,258.702c0-68.262,52.924-114.136,131.691-114.136
					c12.606,0,25.143,1.844,37.399,5.51c29.298-43.656,78.394-87.476,134.376-87.476c68.355,0,129.707,43.143,153.449,106.338
					c11.604-3.875,23.603-5.836,35.859-5.836c62.938,0,114.136,51.197,114.136,114.159
					C606.888,340.178,555.69,391.374,492.752,391.374z"/>
			</g>
			<path d="M325.505,303.059L289.88,412.992l69.732-2.685l-80.471,136.78l21.478-101.926l-72.417,0.023l30.069-139.629
				L325.505,303.059 M359.612,410.308h0.117 M325.505,279.713c-0.28,0-0.583,0-0.863,0.023l-67.235,2.498
				c-10.669,0.397-19.704,7.984-21.945,18.419L205.393,440.26c-1.494,6.887,0.233,14.101,4.669,19.587
				c4.436,5.485,11.112,8.684,18.163,8.684l0,0h43.633l-15.548,73.772c-2.358,11.182,3.735,22.458,14.404,26.59
				c2.755,1.074,5.603,1.588,8.428,1.588c8.078,0,15.828-4.202,20.124-11.51l79.818-135.684c2.475-3.712,3.945-8.171,3.945-12.956
				c0-12.887-10.389-23.346-23.275-23.346h-0.047c-0.023,0-0.047,0-0.07,0c-0.14,0-0.303,0-0.443,0c-0.187,0-0.396,0-0.583,0.023
				l-36.186,1.4l25.329-78.137c2.358-7.261,1.004-15.198-3.595-21.268C339.723,283.145,332.812,279.713,325.505,279.713
				L325.505,279.713z"/>
		</g>
		<g>
			<path d="M577.659,238.088c-2.498,0-5.02-0.817-7.167-2.451c-5.09-3.969-5.977-11.299-2.031-16.388
				c13.213-16.949,20.193-37.283,20.193-58.784c0-52.714-42.908-95.6-95.622-95.6c-35.719,0-68.192,19.68-84.768,51.383
				c-2.988,5.696-10.016,7.938-15.758,4.926c-5.72-2.988-7.914-10.039-4.927-15.758c20.614-39.407,61.025-63.896,105.452-63.896
				C558.633,41.52,612,94.887,612,160.465c0,26.754-8.685,52.037-25.119,73.141C584.569,236.547,581.138,238.088,577.659,238.088z"
				/>
		</g>
	</g>
</g>
<g>
</g>
<g>
</g>
<g>
</g>
<g>
</g>
<g>
</g>
<g>
</g>
<g>
</g>
<g>
</g>
<g>
</g>
<g>
</g>
<g>
</g>
<g>
</g>
<g>
</g>
<g>
</g>
<g>
</g>
</svg>
